<?xml version="1.0" encoding="UTF-8" standalone="no"?>
<!-- Created with Inkscape (http://www.inkscape.org/) -->

<svg
   width="16"
   height="16"
   viewBox="0 0 4.2333332 4.2333333"
   version="1.1"
   id="svg1"
   xml:space="preserve"
   inkscape:version="1.4.2 (2aeb623e1d, 2025-05-12)"
   sodipodi:docname="CustomIcons.svg"
   inkscape:export-filename="../e2749c54/FittingTeeBranchIn.svg"
   inkscape:export-xdpi="29.33"
   inkscape:export-ydpi="29.33"
   xmlns:inkscape="http://www.inkscape.org/namespaces/inkscape"
   xmlns:sodipodi="http://sodipodi.sourceforge.net/DTD/sodipodi-0.dtd"
   xmlns="http://www.w3.org/2000/svg"
   xmlns:svg="http://www.w3.org/2000/svg"><sodipodi:namedview
     id="namedview1"
     pagecolor="#505050"
     bordercolor="#eeeeee"
     borderopacity="1"
     inkscape:showpageshadow="false"
     inkscape:pageopacity="0"
     inkscape:pagecheckerboard="true"
     inkscape:deskcolor="#d1d1d1"
     inkscape:document-units="px"
     inkscape:zoom="16"
     inkscape:cx="0.15625"
     inkscape:cy="-8.46875"
     inkscape:window-width="1920"
     inkscape:window-height="1008"
     inkscape:window-x="1920"
     inkscape:window-y="0"
     inkscape:window-maximized="1"
     inkscape:current-layer="layer1"
     showgrid="true"
     labelstyle="default"
     borderlayer="false"
     showborder="false"><inkscape:grid
       id="grid1"
       units="px"
       originx="0"
       originy="0"
       spacingx="0.26458332"
       spacingy="0.26458333"
       empcolor="#3f3fff"
       empopacity="0.25098039"
       color="#3f3fff"
       opacity="0.1254902"
       empspacing="5"
       enabled="true"
       visible="true" /></sodipodi:namedview><defs
     id="defs1" /><g
     inkscape:label="Layer 1"
     inkscape:groupmode="layer"
     id="layer1"
     transform="translate(-23.890574,-0.05776847)"><rect
       style="fill:#2c2c2c;fill-opacity:1;stroke:none;stroke-width:0.373258;stroke-linecap:round;stroke-linejoin:round;stroke-dasharray:none;stroke-opacity:1"
       id="rect7"
       width="6.3499999"
       height="6.3499999"
       x="-14.385947"
       y="-13.222724"
       ry="0.607822" /><rect
       style="fill:none;fill-opacity:1;stroke:#e0e0e0;stroke-width:0.529167;stroke-linecap:round;stroke-linejoin:round;stroke-dasharray:none;stroke-opacity:1"
       id="rect1"
       width="1.5031271"
       height="3.6880009"
       x="-6.6353302"
       y="-10.308535"
       ry="0.11088644"
       inkscape:export-filename="../af42533e/Ruler.svg"
       inkscape:export-xdpi="29.33"
       inkscape:export-ydpi="29.33"
       transform="rotate(45)" /><path
       style="fill:none;stroke:#e0e0e0;stroke-width:0.264583px;stroke-linecap:butt;stroke-linejoin:miter;stroke-opacity:1"
       d="m 2.1268967,-11.314428 0.5575719,0.557571"
       id="path12" /><path
       style="fill:none;stroke:#e0e0e0;stroke-width:0.264583px;stroke-linecap:butt;stroke-linejoin:miter;stroke-opacity:1"
       d="m 1.6332132,-10.820745 0.3659066,0.365907"
       id="path13" /><path
       style="fill:none;stroke:#e0e0e0;stroke-width:0.264583px;stroke-linecap:butt;stroke-linejoin:miter;stroke-opacity:1"
       d="m 1.1395297,-10.327061 0.5575719,0.5575715"
       id="path14" /><path
       style="fill:none;stroke:#e0e0e0;stroke-width:0.264583px;stroke-linecap:butt;stroke-linejoin:miter;stroke-opacity:1"
       d="m 0.6458462,-9.8333779 0.3659066,0.3659066"
       id="path15" /><path
       id="path21"
       style="fill:#e0e0e0;fill-opacity:1;stroke-width:0.0201713"
       d="m 5.6193829,-11.948343 c -0.016328,5.22e-4 -0.6089798,0.92968 -0.8032776,1.259371 -0.3142066,0.533155 -0.4292906,0.8583843 -0.4293035,1.2132658 -7.4e-6,0.1975749 0.034195,0.3511252 0.1176323,0.5281001 0.1817536,0.3855103 0.5451619,0.6452228 0.9781682,0.6990505 0.070891,0.00881 0.2588963,0.00361 0.3344471,-0.00926 0.3424321,-0.0583 0.6287282,-0.241044 0.8235728,-0.5256895 0.1830037,-0.2673484 0.2508899,-0.5899042 0.194362,-0.9234645 -0.052339,-0.3088434 -0.175383,-0.5904864 -0.4756583,-1.0887434 -0.198692,-0.329697 -0.7272429,-1.153039 -0.739943,-1.152631 z m -0.6610657,1.887112 c 0.030721,0.0013 0.0618,0.01318 0.08832,0.03646 0.05314,0.046657 0.056677,0.093148 0.016063,0.2112274 -0.041319,0.1201292 -0.056971,0.1968494 -0.061719,0.3025191 -0.00871,0.1938645 0.04647,0.3366689 0.1827497,0.472948 0.074109,0.074107 0.1369009,0.1145088 0.2278328,0.1465792 0.055676,0.019637 0.1586419,0.038219 0.2133539,0.038505 0.065191,3.32e-4 0.1247045,0.056343 0.1323197,0.1245121 0.00333,0.029781 7.113e-4,0.041863 -0.016138,0.074666 -0.016796,0.032687 -0.02648,0.042363 -0.058748,0.058706 -0.037838,0.019165 -0.082553,0.023868 -0.1428266,0.01502 -0.00978,-0.00144 -0.0418,-0.00612 -0.071152,-0.010403 C 5.323782,-8.611614 5.1534389,-8.691213 5.0357341,-8.7926468 4.9823777,-8.8386281 4.9040775,-8.9259454 4.8692142,-8.9783465 4.8339533,-9.0313454 4.7835954,-9.1344707 4.7636108,-9.1946194 4.7110335,-9.352863 4.7070955,-9.5676857 4.7533952,-9.7516352 c 0.018799,-0.074691 0.060022,-0.199094 0.077158,-0.2328569 0.026371,-0.051962 0.076562,-0.078958 0.127764,-0.076739 z"
       inkscape:export-filename="../925a9435/Water.svg"
       inkscape:export-xdpi="29.33"
       inkscape:export-ydpi="29.33" /><path
       d="M 11.474,-8.4775986 H 8.2989993 V -11.652599 H 11.474 l -1.5875007,1.5875 z"
       fill="#8da5f3"
       stroke="#8da5f3"
       stroke-linejoin="round"
       stroke-width="0.529167"
       id="path1"
       style="fill:none;stroke:#e0e0e0;stroke-width:0.529167;stroke-dasharray:none;stroke-opacity:1"
       inkscape:export-filename="../4efa99be/PolygonTool.svg"
       inkscape:export-xdpi="29.33"
       inkscape:export-ydpi="29.33" /><path
       id="rect2"
       style="fill:#000000;fill-opacity:0;stroke:#e0e0e0;stroke-width:0.502809;stroke-linecap:square;stroke-linejoin:round;stroke-dasharray:none;stroke-opacity:1"
       d="m -3.8159277,-11.439456 a 1.4159905,1.3825334 0 0 0 -1.4155296,1.344729 h -4.609e-4 v 0.0369 a 1.4159905,1.3825334 0 0 0 0,9e-4 1.4159905,1.3825334 0 0 0 0,9e-4 v 1.424388 h 2.831981 v -1.425287 -0.0378 h -9.218e-4 a 1.4159905,1.3825334 0 0 0 -1.4150687,-1.344729 z"
       inkscape:export-filename="../2aa168a0/TapeMeasure.svg"
       inkscape:export-xdpi="29.33"
       inkscape:export-ydpi="29.33" /><path
       style="fill:#000000;fill-opacity:0;stroke:#e0e0e0;stroke-width:0.264583;stroke-linecap:round;stroke-linejoin:miter;stroke-dasharray:none;stroke-opacity:1"
       d="m -2.2173836,-8.9163763 h 0.7434294 v 0.3949467"
       id="path4"
       sodipodi:nodetypes="ccc" /><circle
       style="fill:#000000;fill-opacity:0;stroke:#e0e0e0;stroke-width:0.296058;stroke-linecap:round;stroke-linejoin:round;stroke-dasharray:none;stroke-opacity:1"
       id="path5"
       cx="-3.8391597"
       cy="-9.9881334"
       r="0.72608244" /><rect
       style="fill:#2c2c2c;fill-opacity:0;stroke:none;stroke-width:0.264583;stroke-linecap:round;stroke-linejoin:round;stroke-dasharray:none;stroke-opacity:1"
       id="rect5"
       width="4.4354577"
       height="4.4354577"
       x="-8.0941677"
       y="-14.257664" /><path
       style="fill:#e0e0e0;fill-opacity:1;stroke-width:0.590684;stroke-linecap:round;stroke-linejoin:round;stroke-dasharray:none"
       id="path2"
       sodipodi:type="arc"
       sodipodi:cx="15.19596"
       sodipodi:cy="-10.040003"
       sodipodi:rx="1.8520833"
       sodipodi:ry="1.8520833"
       sodipodi:start="0"
       sodipodi:end="4.3633231"
       sodipodi:arc-type="slice"
       d="m 17.048043,-10.040003 a 1.8520833,1.8520833 0 0 1 -1.637069,1.8395604 1.8520833,1.8520833 0 0 1 -2.017174,-1.4124404 1.8520833,1.8520833 0 0 1 1.16871,-2.167509 l 0.63345,1.740389 z"
       inkscape:export-filename="../8af04e98/Sprinkler.svg"
       inkscape:export-xdpi="29.33"
       inkscape:export-ydpi="29.33" /><circle
       style="fill:#999999;fill-opacity:1;stroke-width:0.529167;stroke-linecap:round;stroke-linejoin:round;stroke-dasharray:none"
       id="path3"
       cx="15.19596"
       cy="-9.9841557"
       r="0.26458332" /><path
       style="fill:#000000;fill-opacity:1;stroke:#e0e0e0;stroke-width:0.705484;stroke-linecap:round;stroke-linejoin:miter;stroke-dasharray:none;stroke-opacity:1"
       d="m 18.922073,-11.495739 3.023168,3.0231673"
       id="path8"
       inkscape:export-filename="../4a5d8d0/PipeNode.svg"
       inkscape:export-xdpi="29.33"
       inkscape:export-ydpi="29.33" /><path
       style="fill:#000000;fill-opacity:1;stroke:#e0e0e0;stroke-width:0.705484;stroke-linecap:round;stroke-linejoin:miter;stroke-dasharray:none;stroke-opacity:1"
       d="m 21.945241,-11.495739 -1.390258,1.390257"
       id="path9"
       sodipodi:nodetypes="cc" /><circle
       style="fill:#999999;fill-opacity:1;stroke-width:2.13239;stroke-linecap:round;stroke-linejoin:round;stroke-dasharray:none"
       id="path3-5"
       cx="7.3889127"
       cy="-21.508642"
       r="1.0662023"
       transform="rotate(45)" /><path
       style="fill:#000000;fill-opacity:1;stroke:#e0e0e0;stroke-width:0.705484;stroke-linecap:round;stroke-linejoin:miter;stroke-dasharray:none;stroke-opacity:1"
       d="m 27.464922,-11.49574 -3.023168,3.0231685"
       id="path10"
       inkscape:export-filename="../547a589a/Pipe.svg"
       inkscape:export-xdpi="29.33"
       inkscape:export-ydpi="29.33" /><rect
       style="fill:#7cbcff;fill-opacity:1;stroke-width:0.817915;stroke-dasharray:none"
       id="rect3"
       width="4.2333331"
       height="2.1166666"
       x="30.505157"
       y="-4.7047319" /><rect
       style="fill:#7cbcff;fill-opacity:1;stroke-width:0.578354;stroke-dasharray:none"
       id="rect4"
       width="2.1166666"
       height="2.1166666"
       x="-5.7630649"
       y="-33.680157"
       transform="rotate(90)" /><path
       style="fill:#404040;fill-opacity:1;stroke:none;stroke-width:0.419774;stroke-linecap:butt;stroke-linejoin:miter;stroke-dasharray:none;stroke-opacity:1"
       d="m 31.828073,-4.4401482 0.79375,-0.79375 0.79375,0.79375 z"
       id="path6"
       sodipodi:nodetypes="cccc" /><rect
       style="fill:#404040;fill-opacity:1;stroke:none;stroke-width:0.374766;stroke-dasharray:none"
       id="rect6"
       width="0.79375041"
       height="0.52916664"
       x="3.6463981"
       y="32.357243"
       transform="rotate(-90)" /><rect
       style="fill:#7cbcff;fill-opacity:1;stroke-width:0.817915;stroke-dasharray:none"
       id="rect8"
       width="4.2333331"
       height="2.1166666"
       x="23.890574"
       y="-4.7047315" /><rect
       style="fill:#7cbcff;fill-opacity:1;stroke-width:0.578354;stroke-dasharray:none"
       id="rect9"
       width="2.1166666"
       height="2.1166666"
       x="-5.7630644"
       y="-27.065573"
       transform="rotate(90)" /><path
       style="fill:#404040;fill-opacity:1;stroke:none;stroke-width:0.419774;stroke-linecap:butt;stroke-linejoin:miter;stroke-dasharray:none;stroke-opacity:1"
       d="m 26.800985,-4.4401477 0.79375,0.7937499 -0.79375,0.79375 z"
       id="path11"
       sodipodi:nodetypes="cccc" /><rect
       style="fill:#404040;fill-opacity:1;stroke:none;stroke-width:0.649114;stroke-dasharray:none"
       id="rect11"
       width="2.3812499"
       height="0.52916664"
       x="24.419737"
       y="-3.9109812" /><rect
       style="fill:#404040;fill-opacity:1;stroke:none;stroke-width:0.572465;stroke-dasharray:none"
       id="rect12"
       width="1.852083"
       height="0.52916664"
       x="31.034323"
       y="-3.9109819" /><path
       id="rect13"
       style="fill:#7cbcff;stroke-width:0.708335"
       d="m 43.734323,-4.7047315 h 3.174998 v 1.0583333 c 2e-6,0.529167 -0.529165,1.0583336 -1.058332,1.0583336 l -2.116666,-4e-7 z"
       sodipodi:nodetypes="cccccc" /><rect
       style="fill:#7cbcff;fill-opacity:1;stroke-width:0.578354;stroke-dasharray:none"
       id="rect14"
       width="2.1166666"
       height="2.1166666"
       x="-5.7630649"
       y="-46.909325"
       transform="rotate(90)" /><path
       id="rect17"
       style="fill:#7cbcff;fill-opacity:1;stroke:none;stroke-width:0.244099;stroke-dasharray:none"
       d="m 51.233607,-5.6137201 -0.909505,0.9089884 H 49.02599 v 2.1166667 h 1.852084 c 0.182934,0.00121 0.384472,-0.055466 0.542602,-0.2196249 l 1.309481,-1.3094807 z"
       sodipodi:nodetypes="cccccccc" /><rect
       style="fill:#7cbcff;fill-opacity:1;stroke-width:0.817915;stroke-dasharray:none"
       id="rect18"
       width="4.2333331"
       height="2.1166666"
       x="10.661407"
       y="-4.7047315" /><rect
       style="fill:#7cbcff;fill-opacity:1;stroke-width:0.578354;stroke-dasharray:none"
       id="rect19"
       width="2.1166666"
       height="2.1166666"
       x="-5.7630644"
       y="-13.836407"
       transform="rotate(90)" /><path
       sodipodi:type="star"
       style="fill:#ffcc00;fill-opacity:1;stroke:none;stroke-width:0.264999;stroke-dasharray:none"
       id="path22"
       inkscape:flatsided="false"
       sodipodi:sides="5"
       sodipodi:cx="21.509323"
       sodipodi:cy="0.85151839"
       sodipodi:r1="1.4658103"
       sodipodi:r2="0.55700791"
       sodipodi:arg1="-1.5707963"
       sodipodi:arg2="-0.9424778"
       inkscape:rounded="0"
       inkscape:randomized="0"
       d="m 21.509323,-0.61429191 0.327401,1.01518144 1.066668,-0.002331 -0.864323,0.62508516 0.331836,1.0137406 -0.861582,-0.6288576 -0.861582,0.6288575 0.331836,-1.0137405 -0.864322,-0.62508524 1.066667,0.002331 z"
       inkscape:transform-center-y="-0.13997243"
       transform="translate(-8.7312487,-4.8410374)" /><rect
       style="fill:#7cbcff;fill-opacity:1;stroke-width:0.817915;stroke-dasharray:none"
       id="rect3-3"
       width="4.2333331"
       height="2.1166666"
       x="37.11974"
       y="-4.7047319" /><rect
       style="fill:#7cbcff;fill-opacity:1;stroke-width:0.578354;stroke-dasharray:none"
       id="rect4-5"
       width="2.1166666"
       height="2.1166666"
       x="-5.7630644"
       y="-40.294739"
       transform="rotate(90)" /><rect
       style="fill:#404040;fill-opacity:1;stroke:none;stroke-width:0.529999;stroke-dasharray:none"
       id="rect6-2"
       width="1.5875005"
       height="0.52916664"
       x="3.6463976"
       y="38.971821"
       transform="rotate(-90)" /><rect
       style="fill:#404040;fill-opacity:1;stroke:none;stroke-width:0.432743;stroke-dasharray:none"
       id="rect12-9"
       width="1.058333"
       height="0.52916664"
       x="38.971821"
       y="-3.9109814" /><path
       style="fill:#404040;fill-opacity:1;stroke:none;stroke-width:0.419774;stroke-linecap:butt;stroke-linejoin:miter;stroke-dasharray:none;stroke-opacity:1"
       d="m 40.030158,-4.440148 0.79375,0.7937499 -0.79375,0.79375 z"
       id="path23"
       sodipodi:nodetypes="cccc" /><rect
       style="fill:#7cbcff;fill-opacity:1;stroke-width:0.817915;stroke-dasharray:none"
       id="rect23"
       width="4.2333331"
       height="2.1166666"
       x="17.275991"
       y="-4.7047315" /></g></svg>
