<?xml version="1.0" encoding="UTF-8" standalone="no"?>
<!-- Created with Inkscape (http://www.inkscape.org/) -->

<svg
   width="3.728652mm"
   height="3.728652mm"
   viewBox="0 0 3.7286519 3.728652"
   version="1.1"
   id="svg1"
   xml:space="preserve"
   inkscape:version="1.4.2 (2aeb623e1d, 2025-05-12)"
   sodipodi:docname="CustomIcons.svg"
   inkscape:export-filename="../af42533e/Ruler.svg"
   inkscape:export-xdpi="29.33"
   inkscape:export-ydpi="29.33"
   xmlns:inkscape="http://www.inkscape.org/namespaces/inkscape"
   xmlns:sodipodi="http://sodipodi.sourceforge.net/DTD/sodipodi-0.dtd"
   xmlns="http://www.w3.org/2000/svg"
   xmlns:svg="http://www.w3.org/2000/svg"><sodipodi:namedview
     id="namedview1"
     pagecolor="#505050"
     bordercolor="#eeeeee"
     borderopacity="1"
     inkscape:showpageshadow="0"
     inkscape:pageopacity="0"
     inkscape:pagecheckerboard="0"
     inkscape:deskcolor="#d1d1d1"
     inkscape:document-units="mm"
     inkscape:zoom="5.6943323"
     inkscape:cx="-23.795591"
     inkscape:cy="21.161393"
     inkscape:window-width="1920"
     inkscape:window-height="1008"
     inkscape:window-x="1920"
     inkscape:window-y="0"
     inkscape:window-maximized="1"
     inkscape:current-layer="layer1"
     showgrid="false" /><defs
     id="defs1" /><g
     inkscape:label="Layer 1"
     inkscape:groupmode="layer"
     id="layer1"
     transform="translate(-23.890574,-0.05776847)"><rect
       style="fill:#2c2c2c;fill-opacity:1;stroke:none;stroke-width:0.373258;stroke-linecap:round;stroke-linejoin:round;stroke-dasharray:none;stroke-opacity:1"
       id="rect7"
       width="6.3499999"
       height="6.3499999"
       x="-14.584385"
       y="-1.3164736"
       ry="0.607822" /><rect
       style="fill:none;fill-opacity:1;stroke:#e0e0e0;stroke-width:0.529167;stroke-linecap:round;stroke-linejoin:round;stroke-dasharray:none;stroke-opacity:1"
       id="rect1"
       width="1.5031271"
       height="3.6880009"
       x="1.6433433"
       y="-1.7492284"
       ry="0.11088644"
       inkscape:export-filename="../af42533e/Ruler.svg"
       inkscape:export-xdpi="29.33"
       inkscape:export-ydpi="29.33"
       transform="rotate(45)" /><path
       style="fill:none;stroke:#e0e0e0;stroke-width:0.264583px;stroke-linecap:butt;stroke-linejoin:miter;stroke-opacity:1"
       d="M 1.9284592,0.59182157 2.4860311,1.1493934"
       id="path12" /><path
       style="fill:none;stroke:#e0e0e0;stroke-width:0.264583px;stroke-linecap:butt;stroke-linejoin:miter;stroke-opacity:1"
       d="M 1.4347757,1.0855051 1.8006823,1.4514117"
       id="path13" /><path
       style="fill:none;stroke:#e0e0e0;stroke-width:0.264583px;stroke-linecap:butt;stroke-linejoin:miter;stroke-opacity:1"
       d="M 0.94109219,1.5791886 1.4986641,2.1367605"
       id="path14" /><path
       style="fill:none;stroke:#e0e0e0;stroke-width:0.264583px;stroke-linecap:butt;stroke-linejoin:miter;stroke-opacity:1"
       d="M 0.4474087,2.0728721 0.81331531,2.4387787"
       id="path15" /><path
       id="path21"
       style="fill:#e0e0e0;fill-opacity:1;stroke-width:0.0201713"
       d="M 5.4209454,-0.04209304 C 5.4046171,-0.04157135 4.8119656,0.88758723 4.6176678,1.2172776 4.3034612,1.7504334 4.1883772,2.0756623 4.1883643,2.4305438 c -7.4e-6,0.1975749 0.034195,0.3511252 0.1176323,0.5281001 0.1817536,0.3855103 0.5451619,0.6452228 0.9781682,0.6990505 0.070891,0.00881 0.2588963,0.00361 0.3344471,-0.00926 C 5.961044,3.5901344 6.2473401,3.4073904 6.4421847,3.1227449 6.6251884,2.8553965 6.6930746,2.5328407 6.6365467,2.1992804 6.5842077,1.8904374 6.4611637,1.6087945 6.1608884,1.1105368 5.9621964,0.78084001 5.4336455,-0.04250162 5.4209454,-0.04209423 Z M 4.7598797,1.8450189 c 0.030721,0.00132 0.0618,0.013177 0.08832,0.036462 0.05314,0.046657 0.056677,0.093148 0.016063,0.2112275 -0.041319,0.1201292 -0.056971,0.1968494 -0.061719,0.3025191 -0.00871,0.1938645 0.04647,0.3366689 0.1827497,0.472948 0.074109,0.074107 0.1369009,0.1145088 0.2278328,0.1465792 0.055676,0.019637 0.1586419,0.038219 0.2133539,0.038505 0.065191,3.32e-4 0.1247045,0.056343 0.1323197,0.1245121 0.00333,0.029781 7.113e-4,0.041863 -0.016138,0.074666 -0.016796,0.032687 -0.02648,0.042363 -0.058748,0.058706 -0.037838,0.019165 -0.082553,0.023868 -0.1428266,0.01502 -0.00978,-0.00144 -0.0418,-0.00612 -0.071152,-0.010403 C 5.1253445,3.294636 4.9550014,3.215037 4.8372966,3.1136032 4.7839402,3.0676219 4.70564,2.9803046 4.6707767,2.9279035 4.6355158,2.8749046 4.5851579,2.7717793 4.5651733,2.7116306 4.512596,2.553387 4.508658,2.3385643 4.5549577,2.1546148 c 0.018799,-0.074691 0.060022,-0.199094 0.077158,-0.2328569 0.026371,-0.051962 0.076562,-0.078958 0.127764,-0.076739 z"
       inkscape:export-filename="../925a9435/Water.svg"
       inkscape:export-xdpi="29.33"
       inkscape:export-ydpi="29.33" /><path
       d="M 11.275562,3.4286514 H 8.1005618 V 0.25365132 H 11.275562 L 9.6880618,1.8411514 Z"
       fill="#8da5f3"
       stroke="#8da5f3"
       stroke-linejoin="round"
       stroke-width="0.529167"
       id="path1"
       style="fill:none;stroke:#e0e0e0;stroke-width:0.529167;stroke-dasharray:none;stroke-opacity:1"
       inkscape:export-filename="../4efa99be/PolygonTool.svg"
       inkscape:export-xdpi="29.33"
       inkscape:export-ydpi="29.33" /><path
       id="rect2"
       style="fill:#000000;fill-opacity:0;stroke:#e0e0e0;stroke-width:0.502809;stroke-linecap:square;stroke-linejoin:round;stroke-dasharray:none;stroke-opacity:1"
       d="M -4.0143652,0.46679363 A 1.4159905,1.3825334 0 0 0 -5.4298948,1.8115234 h -4.609e-4 v 0.036903 a 1.4159905,1.3825334 0 0 0 0,9.001e-4 1.4159905,1.3825334 0 0 0 0,9e-4 V 3.274614 h 2.831981 V 1.8493271 1.8115234 h -9.218e-4 A 1.4159905,1.3825334 0 0 0 -4.0143652,0.46679363 Z"
       inkscape:export-filename="../2aa168a0/TapeMeasure.svg"
       inkscape:export-xdpi="29.33"
       inkscape:export-ydpi="29.33" /><path
       style="fill:#000000;fill-opacity:0;stroke:#e0e0e0;stroke-width:0.264583;stroke-linecap:round;stroke-linejoin:miter;stroke-dasharray:none;stroke-opacity:1"
       d="m -2.4158211,2.9898737 h 0.7434294 v 0.3949467"
       id="path4"
       sodipodi:nodetypes="ccc" /><circle
       style="fill:#000000;fill-opacity:0;stroke:#e0e0e0;stroke-width:0.296058;stroke-linecap:round;stroke-linejoin:round;stroke-dasharray:none;stroke-opacity:1"
       id="path5"
       cx="-4.0375972"
       cy="1.9181166"
       r="0.72608244" /><rect
       style="fill:#2c2c2c;fill-opacity:0;stroke:none;stroke-width:0.264583;stroke-linecap:round;stroke-linejoin:round;stroke-dasharray:none;stroke-opacity:1"
       id="rect5"
       width="4.4354577"
       height="4.4354577"
       x="-8.2926054"
       y="-2.351414" /><path
       style="fill:#e0e0e0;fill-opacity:1;stroke-width:0.590684;stroke-linecap:round;stroke-linejoin:round;stroke-dasharray:none"
       id="path2"
       sodipodi:type="arc"
       sodipodi:cx="14.997522"
       sodipodi:cy="1.8662473"
       sodipodi:rx="1.8520833"
       sodipodi:ry="1.8520833"
       sodipodi:start="0"
       sodipodi:end="4.3633231"
       sodipodi:arc-type="slice"
       d="m 16.849606,1.8662473 a 1.8520833,1.8520833 0 0 1 -1.63707,1.8395602 1.8520833,1.8520833 0 0 1 -2.017174,-1.4124404 1.8520833,1.8520833 0 0 1 1.16871,-2.16750882 l 0.63345,1.74038902 z"
       inkscape:export-filename="../8af04e98/Sprinkler.svg"
       inkscape:export-xdpi="29.33"
       inkscape:export-ydpi="29.33" /><circle
       style="fill:#999999;fill-opacity:1;stroke-width:0.529167;stroke-linecap:round;stroke-linejoin:round;stroke-dasharray:none"
       id="path3"
       cx="14.997522"
       cy="1.9220945"
       r="0.26458332" /><path
       style="fill:#000000;fill-opacity:1;stroke:#e0e0e0;stroke-width:0.705484;stroke-linecap:round;stroke-linejoin:miter;stroke-dasharray:none;stroke-opacity:1"
       d="M 18.723635,0.41051063 21.746803,3.4336783"
       id="path8"
       inkscape:export-filename="../4a5d8d0/PipeNode.svg"
       inkscape:export-xdpi="29.33"
       inkscape:export-ydpi="29.33" /><path
       style="fill:#000000;fill-opacity:1;stroke:#e0e0e0;stroke-width:0.705484;stroke-linecap:round;stroke-linejoin:miter;stroke-dasharray:none;stroke-opacity:1"
       d="M 21.746803,0.41051063 20.356545,1.8007682"
       id="path9"
       sodipodi:nodetypes="cc" /><circle
       style="fill:#999999;fill-opacity:1;stroke-width:2.13239;stroke-linecap:round;stroke-linejoin:round;stroke-dasharray:none"
       id="path3-5"
       cx="15.667586"
       cy="-12.949335"
       r="1.0662023"
       transform="rotate(45)" /><path
       style="fill:#000000;fill-opacity:1;stroke:#e0e0e0;stroke-width:0.705484;stroke-linecap:round;stroke-linejoin:miter;stroke-dasharray:none;stroke-opacity:1"
       d="M 27.266484,0.41051046 24.243316,3.4336785"
       id="path10"
       inkscape:export-filename="../547a589a/Pipe.svg"
       inkscape:export-xdpi="29.33"
       inkscape:export-ydpi="29.33" /></g></svg>
