<?xml version="1.0" encoding="UTF-8" standalone="no"?>
<!-- Created with Inkscape (http://www.inkscape.org/) -->

<svg
   width="16"
   height="15.999999"
   viewBox="0 0 4.2333332 4.233333"
   version="1.1"
   id="svg1"
   xml:space="preserve"
   xmlns="http://www.w3.org/2000/svg"
   xmlns:svg="http://www.w3.org/2000/svg"><defs
     id="defs1" /><g
     id="layer1"
     transform="translate(-23.890574,-0.05776847)"><path
       id="path21"
       style="fill:#e0e0e0;fill-opacity:1;stroke-width:0.0201713"
       d="m 26.006045,0.32235315 c -0.01633,5.22e-4 -0.60898,0.92967995 -0.803278,1.25937095 -0.314207,0.533155 -0.429291,0.8583843 -0.429304,1.2132658 -7e-6,0.1975749 0.0342,0.3511252 0.117633,0.5281001 0.181753,0.3855103 0.545162,0.6452228 0.978168,0.6990505 0.07089,0.00881 0.258896,0.00361 0.334447,-0.00926 0.342432,-0.0583 0.628728,-0.241044 0.823573,-0.5256895 0.183004,-0.2673484 0.25089,-0.5899042 0.194362,-0.9234645 C 27.169307,2.2548831 27.046263,1.9732401 26.745988,1.4749831 26.547296,1.1452861 26.018745,0.32194415 26.006045,0.32235315 Z M 25.344979,2.2094651 c 0.03072,0.0013 0.0618,0.01318 0.08832,0.03646 0.05314,0.046657 0.05668,0.093148 0.01606,0.2112274 -0.04132,0.1201292 -0.05697,0.1968494 -0.06172,0.3025191 -0.0087,0.1938645 0.04647,0.3366689 0.18275,0.472948 0.07411,0.074107 0.1369,0.1145088 0.227832,0.1465792 0.05568,0.019637 0.158642,0.038219 0.213354,0.038505 0.06519,3.32e-4 0.124705,0.056343 0.13232,0.1245121 0.0033,0.029781 7.11e-4,0.041863 -0.01614,0.074666 -0.0168,0.032687 -0.02648,0.042363 -0.05875,0.058706 -0.03784,0.019165 -0.08255,0.023868 -0.142827,0.01502 -0.0098,-0.00144 -0.0418,-0.00612 -0.07115,-0.010403 -0.144584,-0.021123 -0.314927,-0.1007218 -0.432632,-0.2021556 -0.05336,-0.045981 -0.131657,-0.1332986 -0.16652,-0.1856997 -0.03526,-0.052999 -0.08562,-0.1561242 -0.105604,-0.2162729 -0.05258,-0.1582436 -0.05652,-0.3730663 -0.01022,-0.5570158 0.0188,-0.074691 0.06002,-0.199094 0.07716,-0.2328569 0.02637,-0.051962 0.07656,-0.078958 0.127764,-0.076739 z" /></g></svg>
