<?xml version="1.0" encoding="UTF-8" standalone="no"?>
<!-- Created with Inkscape (http://www.inkscape.org/) -->

<svg
   width="2.8200638mm"
   height="4.2333336mm"
   viewBox="0 0 2.8200637 4.2333336"
   version="1.1"
   id="svg1"
   xml:space="preserve"
   xmlns="http://www.w3.org/2000/svg"
   xmlns:svg="http://www.w3.org/2000/svg"><defs
     id="defs1" /><g
     id="layer1"
     transform="translate(-4.2580609,0.28603213)"><path
       id="path21"
       style="fill:#e0e0e0;fill-opacity:1;stroke-width:0.0230529"
       d="m 5.6667251,-0.28603058 c -0.018661,5.9622e-4 -0.695977,1.06249184 -0.9180317,1.43928088 -0.3590933,0.609321 -0.4906179,0.9810112 -0.4906326,1.3865901 -8.4e-6,0.2257999 0.03908,0.401286 0.1344369,0.603543 0.2077184,0.4405833 0.6230423,0.7373976 1.1179066,0.798915 0.081018,0.010069 0.2958816,0.00413 0.3822253,-0.010581 0.391351,-0.06663 0.7185466,-0.2754808 0.9412262,-0.60079 C 7.0430029,3.0253864 7.1205871,2.6567512 7.0559838,2.2755394 6.9961678,1.9225759 6.8555461,1.6006983 6.5123743,1.0312608 6.2852977,0.65446443 5.6812394,-0.28649753 5.6667251,-0.28603194 Z M 4.9112213,1.870669 c 0.03511,0.00151 0.070629,0.01506 0.1009376,0.041671 0.060731,0.053322 0.064774,0.1064544 0.018358,0.2414029 -0.047222,0.1372905 -0.06511,0.2249708 -0.070536,0.3457361 -0.00995,0.2215595 0.053109,0.3847645 0.2088568,0.5405121 0.084696,0.084694 0.1564582,0.1308672 0.2603803,0.1675191 0.06363,0.022442 0.1813051,0.043679 0.2438331,0.044006 0.074504,3.795e-4 0.1425194,0.064392 0.1512225,0.1422996 0.00381,0.034036 8.13e-4,0.047843 -0.018443,0.085332 -0.019196,0.037357 -0.030263,0.048415 -0.067141,0.067093 -0.043243,0.021903 -0.094346,0.027278 -0.1632304,0.017166 -0.011182,-0.00165 -0.047771,-0.00699 -0.081317,-0.011889 C 5.3288954,3.5273744 5.1342176,3.4364041 4.9996978,3.3204798 4.938719,3.2679297 4.8492331,3.1681385 4.8093893,3.1082515 4.7690911,3.0476814 4.7115393,2.9298239 4.6886997,2.8610825 4.6286113,2.6802326 4.6241108,2.434721 4.6770247,2.224493 c 0.021485,-0.085361 0.068597,-0.2275361 0.08818,-0.2661222 0.030138,-0.059385 0.0875,-0.090238 0.1460166,-0.087702 z" /></g></svg>
